<svg width="120" height="120" viewBox="0 0 120 120" fill="none" xmlns="http://www.w3.org/2000/svg">
<rect width="120" height="120" rx="60" fill="#D9D9D9"/>
<path d="M60 32C63.713 32 67.274 33.475 69.8995 36.1005C72.525 38.726 74 42.287 74 46C74 49.713 72.525 53.274 69.8995 55.8995C67.274 58.525 63.713 60 60 60C56.287 60 52.726 58.525 50.1005 55.8995C47.475 53.274 46 49.713 46 46C46 42.287 47.475 38.726 50.1005 36.1005C52.726 33.475 56.287 32 60 32ZM60 88C60 88 88 88 88 81C88 72.6 74.35 63.5 60 63.5C45.65 63.5 32 72.6 32 81C32 88 60 88 60 88Z" fill="white"/>
</svg>
