<svg width="1920" height="787" viewBox="0 0 1920 787" fill="none" xmlns="http://www.w3.org/2000/svg">
<rect width="1920" height="787" fill="#EDF4FF"/>
<g clip-path="url(#clip0_10941_1807)">
<path d="M1741.52 288.937L1737.59 353.46L1796.72 379.58L1734.14 395.776L1727.58 460.088L1692.83 405.566L1629.64 419.204L1670.75 369.314L1638.26 313.431L1698.41 337.115L1741.52 288.937Z" fill="#1F467C" fill-opacity="0.04"/>
</g>
<g clip-path="url(#clip1_10941_1807)">
<path d="M309.272 610.092L333.402 648.086L377.417 638.67L348.735 673.359L371.296 712.308L329.434 695.75L299.367 729.243L302.18 684.32L261.04 666.069L304.634 654.864L309.272 610.092Z" fill="#1F467C" fill-opacity="0.04"/>
</g>
<g clip-path="url(#clip2_10941_1807)">
<path d="M132.347 238.877L152.485 255.966L175.511 243.025L165.479 267.459L184.904 285.357L158.562 283.368L147.545 307.373L141.298 281.708L115.065 278.645L137.544 264.775L132.347 238.877Z" fill="#1F467C" fill-opacity="0.04"/>
</g>
<defs>
<clipPath id="clip0_10941_1807">
<rect width="175.495" height="175.495" fill="white" transform="translate(1662.31 250.881) rotate(22.6575)"/>
</clipPath>
<clipPath id="clip1_10941_1807">
<rect width="122.192" height="122.192" fill="white" transform="translate(219.727 614.699) rotate(-13.2482)"/>
</clipPath>
<clipPath id="clip2_10941_1807">
<rect width="71.7053" height="71.7053" fill="white" transform="translate(100.5 255.459) rotate(-30.5109)"/>
</clipPath>
</defs>
</svg>
