<svg width="80" height="80" viewBox="0 0 80 80" fill="none" xmlns="http://www.w3.org/2000/svg">
<circle cx="40" cy="40" r="40" fill="#024FBA" fill-opacity="0.7"/>
<path d="M55.75 55.75L47.8995 47.8855M37.375 31.25V37.375M37.375 37.375V43.5M37.375 37.375H43.5M37.375 37.375H31.25M52.25 37.375C52.25 41.3201 50.6828 45.1036 47.8932 47.8932C45.1036 50.6828 41.3201 52.25 37.375 52.25C33.4299 52.25 29.6464 50.6828 26.8568 47.8932C24.0672 45.1036 22.5 41.3201 22.5 37.375C22.5 33.4299 24.0672 29.6464 26.8568 26.8568C29.6464 24.0672 33.4299 22.5 37.375 22.5C41.3201 22.5 45.1036 24.0672 47.8932 26.8568C50.6828 29.6464 52.25 33.4299 52.25 37.375Z" stroke="white" stroke-width="3" stroke-linecap="round"/>
</svg>
